<svg width="28" height="28" viewBox="0 0 28 28" fill="none" xmlns="http://www.w3.org/2000/svg">
<path fill-rule="evenodd" clip-rule="evenodd" d="M24.6898 3.52189C24.6954 3.54097 24.7045 3.55797 24.7171 3.5729C24.7298 3.58757 24.7447 3.59883 24.7617 3.60665L26.1715 4.24768C26.1774 4.25037 26.1831 4.25342 26.1886 4.25685C26.1938 4.26052 26.1988 4.26443 26.2036 4.26859C26.2084 4.273 26.2129 4.27764 26.2173 4.28254C26.2214 4.28767 26.2251 4.29305 26.2285 4.29868C26.2322 4.30431 26.2352 4.31017 26.2378 4.31629C26.2404 4.32241 26.2427 4.32865 26.2446 4.335C26.2464 4.34161 26.2477 4.34821 26.2486 4.35482C26.2495 4.36143 26.25 4.36815 26.25 4.375C26.25 4.38185 26.2495 4.38858 26.2486 4.39519C26.2477 4.40179 26.2464 4.40839 26.2446 4.415C26.2427 4.42135 26.2404 4.42759 26.2378 4.43371C26.2352 4.43983 26.2322 4.44569 26.2285 4.45132C26.2251 4.45695 26.2214 4.46233 26.2173 4.46747C26.2129 4.47236 26.2084 4.477 26.2036 4.48141C26.1988 4.48557 26.1937 4.48948 26.1882 4.49315C26.183 4.49658 26.1774 4.49963 26.1715 4.50232L24.7621 5.14335C24.7448 5.15117 24.7298 5.16243 24.7171 5.1771C24.7045 5.19178 24.6954 5.20878 24.6897 5.22811L24.1847 6.9046L24.1812 6.91487L24.1771 6.92478L24.1721 6.93396L24.1666 6.94312L24.1601 6.95157L24.1532 6.95964L24.1462 6.96698L24.1379 6.97358C24.1352 6.97603 24.1324 6.97811 24.1297 6.97982L24.1209 6.98496L24.1117 6.98973L24.1021 6.99339L24.0925 6.99633C24.0894 6.99731 24.086 6.99804 24.0823 6.99853L24.0727 6.99963L24.0625 7H24.0523L24.0424 6.99853C24.0389 6.99804 24.0356 6.99731 24.0325 6.99633L24.0229 6.99339L24.0133 6.98973L24.0041 6.98496L23.9953 6.97982L23.9871 6.97358L23.9788 6.96698L23.9718 6.95964L23.9649 6.95157L23.9584 6.94312L23.9529 6.93396L23.9478 6.92478L23.9438 6.91487L23.9403 6.9046L23.4352 5.22774C23.4296 5.2089 23.4205 5.19203 23.4079 5.1771C23.3952 5.16243 23.3803 5.15117 23.3633 5.14335L21.9535 4.50232C21.9476 4.49963 21.9419 4.49658 21.9364 4.49315C21.9312 4.48948 21.9262 4.48557 21.9214 4.48141C21.9166 4.477 21.912 4.47236 21.9077 4.46747C21.9036 4.46233 21.8999 4.45695 21.8965 4.45132C21.8928 4.44569 21.8898 4.43983 21.8872 4.43371C21.8846 4.42759 21.8823 4.42135 21.8804 4.415C21.8786 4.40839 21.8773 4.40179 21.8764 4.39519C21.8755 4.38858 21.875 4.38185 21.875 4.375C21.875 4.36815 21.8755 4.36143 21.8764 4.35482C21.8773 4.34821 21.8786 4.34161 21.8804 4.335C21.8823 4.32865 21.8846 4.32241 21.8872 4.31629C21.8898 4.31017 21.8928 4.30431 21.8965 4.29868C21.8999 4.29305 21.9036 4.28767 21.9077 4.28253C21.9121 4.27764 21.9166 4.273 21.9214 4.26859C21.9262 4.26443 21.9313 4.26052 21.9368 4.25685C21.942 4.25342 21.9476 4.25037 21.9535 4.24768L23.3629 3.60665C23.3802 3.59883 23.3952 3.58757 23.408 3.5729C23.4205 3.55822 23.4296 3.54122 23.4353 3.52189L23.9403 1.8454L23.9438 1.83513L23.9479 1.82522L23.9529 1.81605L23.9584 1.80687L23.9649 1.79843L23.9718 1.79036L23.9788 1.78302L23.9871 1.77642C23.9898 1.77397 23.9926 1.77189 23.9953 1.77018L24.0041 1.76504L24.0133 1.76027L24.0229 1.7566L24.0325 1.75367L24.0427 1.75147L24.0523 1.75037L24.0625 1.75H24.0727L24.0826 1.75147L24.0925 1.75367L24.1021 1.7566L24.1117 1.76027L24.1209 1.76504L24.1297 1.77018L24.1379 1.77642L24.1462 1.78302L24.1532 1.79036L24.1601 1.79843L24.1666 1.80687L24.1721 1.81605L24.1772 1.82522L24.1812 1.83513L24.1847 1.8454L24.6898 3.52189ZM14.8343 2.11731L17.3503 4.10139L16.7959 5.82666L16.5122 5.94761L14.091 4.03812L6.38728 10.1136V22.8417H21.5667V11.2261L21.7041 10.7984L22.0366 10.6565L23.3108 10.1133C23.3995 10.0755 23.4905 10.0278 23.584 9.9704C23.6531 9.92683 23.7192 9.87936 23.7822 9.82797L23.8012 9.81241L23.8199 9.79631C23.8728 9.75062 23.9232 9.70235 23.9711 9.6515L24.0018 9.61891L24.0308 9.58478C24.0674 9.54178 24.102 9.49734 24.1347 9.45149L25.923 10.8617C26.3725 11.2162 26.4541 11.7619 26.1514 12.1675C25.9795 12.3979 25.6809 12.5251 25.3966 12.5587L25.2735 12.566H23.2969V23.384C23.2969 23.9973 22.8474 24.5416 22.2192 24.6035L22.0993 24.6094H5.90064C5.25111 24.6094 4.76345 24.1012 4.70832 23.4981L4.70312 23.384V12.566H2.90938C2.32393 12.566 1.85938 12.2634 1.85938 11.688C1.85938 11.4071 1.97155 11.1385 2.16971 10.9415L2.25983 10.8617L13.3485 2.11732C13.7511 1.79987 14.3049 1.77545 14.7307 2.04406L14.8343 2.11731ZM20.2554 7.03817C20.2645 7.06463 20.2785 7.08836 20.2973 7.10934C20.3176 7.13136 20.3415 7.14824 20.3688 7.15998L20.5752 7.24795L20.8413 7.36137L21.2181 7.52203L21.9936 7.85259L22.0112 7.86011L22.1194 7.90623L22.2261 7.95173L22.2408 7.95799L22.6244 8.12151C22.6339 8.12555 22.643 8.13014 22.6517 8.13528C22.6601 8.14078 22.6681 8.14665 22.6757 8.15288C22.6834 8.15949 22.6906 8.16647 22.6976 8.1738C22.7041 8.18151 22.7101 8.18958 22.7156 8.19801C22.7214 8.20646 22.7263 8.21526 22.7303 8.22444C22.7347 8.23361 22.7383 8.24297 22.7412 8.25251C22.7442 8.26242 22.7464 8.27232 22.7478 8.28222C22.7493 8.29214 22.75 8.30223 22.75 8.3125C22.75 8.32277 22.7493 8.33286 22.7478 8.34278C22.7472 8.34717 22.7464 8.35156 22.7455 8.35594C22.7443 8.36146 22.7429 8.36697 22.7412 8.37249C22.7383 8.38203 22.7347 8.39139 22.7303 8.40056C22.7263 8.40974 22.7214 8.41854 22.7156 8.42699C22.7101 8.43542 22.7041 8.44349 22.6976 8.4512C22.6906 8.45853 22.6834 8.46551 22.6757 8.47212C22.6681 8.47835 22.6599 8.48422 22.6512 8.48973C22.6428 8.49486 22.6339 8.49945 22.6244 8.50349L22.3719 8.61116L22.326 8.63073L22.2644 8.657L22.226 8.67335L22.1194 8.71883L22.0194 8.76146L21.9934 8.77254L21.2182 9.10309L20.8414 9.26377L20.7607 9.29815L20.3694 9.46502C20.3417 9.47677 20.3176 9.49365 20.2973 9.51566C20.2773 9.53767 20.2627 9.56318 20.2536 9.59216L19.4455 12.1069L19.4401 12.1223L19.4335 12.1372L19.4253 12.1509L19.4165 12.1647L19.4062 12.1774L19.3953 12.1895L19.3838 12.2005L19.3707 12.2104C19.3663 12.214 19.3619 12.2172 19.3575 12.2197L19.3434 12.2274L19.3287 12.2346L19.3133 12.2401L19.298 12.2445C19.293 12.2459 19.2875 12.2471 19.2817 12.2478L19.2664 12.2495L19.25 12.25H19.2336L19.2178 12.2478C19.2123 12.2471 19.207 12.2459 19.202 12.2445L19.1867 12.2401L19.1713 12.2346L19.1566 12.2274L19.1425 12.2197L19.1293 12.2104L19.1162 12.2005L19.1047 12.1895L19.0938 12.1774L19.0835 12.1647L19.0747 12.1509L19.0665 12.1372L19.0599 12.1223L19.0545 12.1069L18.2464 9.59161C18.2373 9.56336 18.2227 9.53804 18.2027 9.51566C18.1824 9.49365 18.1585 9.47677 18.1312 9.46502L15.8756 8.50349C15.8661 8.49945 15.857 8.49486 15.8483 8.48973C15.8399 8.48422 15.8319 8.47835 15.8243 8.47212C15.8166 8.46551 15.8094 8.45853 15.8024 8.4512C15.7959 8.44349 15.7899 8.43542 15.7844 8.42699C15.7786 8.41854 15.7737 8.40974 15.7697 8.40056C15.7653 8.39139 15.7617 8.38203 15.7587 8.37249C15.7558 8.36258 15.7536 8.35268 15.7522 8.34278C15.7507 8.33286 15.75 8.32277 15.75 8.3125C15.75 8.30223 15.7507 8.29214 15.7522 8.28222C15.7536 8.27232 15.7558 8.26242 15.7587 8.25251C15.7617 8.24297 15.7653 8.23361 15.7697 8.22444C15.7737 8.21526 15.7786 8.20646 15.7844 8.19801C15.7899 8.18958 15.7959 8.18151 15.8024 8.1738C15.8094 8.16647 15.8166 8.15949 15.8243 8.15288C15.8319 8.14665 15.8401 8.14078 15.8488 8.13528C15.8572 8.13014 15.8661 8.12555 15.8756 8.12151L18.078 7.18244L18.1307 7.15998C18.1583 7.14824 18.1824 7.13136 18.2027 7.10934C18.2227 7.08733 18.2373 7.06182 18.2464 7.03284L18.3309 6.77001L18.4965 6.2548L18.6031 5.92273L18.6388 5.81166L18.7036 5.61036L18.7302 5.52734L18.8168 5.25786L19.0545 4.51811L19.0599 4.50269L19.0665 4.48783L19.0747 4.47407L19.0835 4.46031L19.0938 4.44765L19.1047 4.43554L19.1162 4.42453L19.1293 4.41463C19.1337 4.41096 19.1381 4.40784 19.1425 4.40527L19.1566 4.39757L19.1713 4.39041L19.1867 4.38491L19.202 4.3805L19.2183 4.37721L19.2336 4.37555L19.25 4.375H19.2664L19.2822 4.37721L19.298 4.3805L19.3133 4.38491L19.3287 4.39041L19.3434 4.39757L19.3575 4.40527L19.3707 4.41463L19.3838 4.42453L19.3953 4.43554L19.4062 4.44765L19.4165 4.46031L19.4253 4.47407L19.4335 4.48783L19.4401 4.50269L19.4455 4.51811L20.2536 7.03284C20.2542 7.03479 20.2554 7.03817 20.2554 7.03817ZM21.9169 10.136C21.9191 10.1295 21.9212 10.1229 21.9232 10.1163L21.9169 10.136ZM18.8033 18.3756V20.1619H9.40625V18.3756H18.8033Z" fill="currentColor"/>
</svg>
