<svg width="28" height="28" viewBox="0 0 28 28" fill="none" xmlns="http://www.w3.org/2000/svg">
<path d="M16.625 24.5C17.1082 24.5 17.5 24.8918 17.5 25.375C17.5 25.8582 17.1082 26.25 16.625 26.25H11.375C10.8918 26.25 10.5 25.8582 10.5 25.375C10.5 24.8918 10.8918 24.5 11.375 24.5H16.625ZM18.375 21.4375C18.8582 21.4375 19.25 21.8293 19.25 22.3125C19.25 22.7957 18.8582 23.1875 18.375 23.1875H9.625C9.14175 23.1875 8.75 22.7957 8.75 22.3125C8.75 21.8293 9.14175 21.4375 9.625 21.4375H18.375ZM14 1.63867C19.799 1.63867 24.5 6.33968 24.5 12.1387C24.5 15.2485 23.1467 18.0435 21 19.9648C20.6399 20.287 20.0869 20.2565 19.7646 19.8965C19.4424 19.5365 19.4731 18.9834 19.833 18.6611C21.6245 17.0577 22.75 14.73 22.75 12.1387C22.75 7.30618 18.8325 3.38867 14 3.38867C9.16751 3.38867 5.25 7.30618 5.25 12.1387C5.25002 14.73 6.37551 17.0577 8.16699 18.6611C8.52686 18.9834 8.55757 19.5365 8.23535 19.8965C7.9131 20.2565 7.36007 20.287 7 19.9648C4.85329 18.0435 3.50002 15.2485 3.5 12.1387C3.5 6.33968 8.20101 1.63867 14 1.63867ZM14 7.7002C14.1694 7.70031 14.3216 7.80421 14.3838 7.96191L15.4883 10.7617L18.2881 11.8662C18.4457 11.9283 18.5498 12.0803 18.5498 12.25C18.5498 12.4195 18.4457 12.5715 18.2881 12.6338L15.4883 13.7383L14.3838 16.5391C14.3215 16.6963 14.1692 16.7997 14 16.7998C13.8304 16.7998 13.6774 16.6965 13.6152 16.5391L12.5107 13.7383L9.71094 12.6338C9.55335 12.5714 9.4502 12.4194 9.4502 12.25C9.45023 12.0805 9.55334 11.9283 9.71094 11.8662L12.5107 10.7617L13.6152 7.96191C13.6773 7.80412 13.8303 7.7002 14 7.7002Z" fill="currentColor"/>
</svg>
