<svg width="28" height="28" viewBox="0 0 28 28" fill="none" xmlns="http://www.w3.org/2000/svg">
<path fill-rule="evenodd" clip-rule="evenodd" d="M17.8424 3.61708L15.6216 5.83799L15.6206 5.83891L2.74214 18.7174C2.08071 19.3788 1.75 20.1772 1.75 21.1127C1.75 22.0481 2.08071 22.8465 2.74214 23.5079C3.40356 24.1693 4.20195 24.5 5.13732 24.5C6.07268 24.5 6.87107 24.1693 7.5325 23.5079L20.412 10.6285L22.6329 8.40757C23.2943 7.74618 23.625 6.94777 23.625 6.01233C23.625 5.07689 23.2942 4.27841 22.6327 3.61689C21.9711 2.95563 21.1726 2.625 20.2374 2.625C19.3021 2.625 18.5038 2.95569 17.8424 3.61708ZM15.7235 8.21093L3.97954 19.9549C3.65985 20.2746 3.5 20.6605 3.5 21.1127C3.5 21.5649 3.65985 21.9508 3.97954 22.2705C4.75139 23.0422 5.52323 23.0422 6.29506 22.2705L18.0391 10.5265L15.7235 8.21093ZM16.9609 6.97349L19.2765 9.28911L21.3955 7.17014C22.1674 6.39826 22.1674 5.62646 21.3957 4.85472C20.6234 4.08296 19.8515 4.08289 19.0799 4.85452L16.9609 6.97349ZM21.7407 18.7882C21.7182 18.7633 21.7018 18.735 21.6915 18.7031L20.7824 15.909L20.7763 15.8918L20.7689 15.8754L20.7597 15.8601L20.7498 15.8448L20.7382 15.8308L20.7259 15.8173L20.713 15.805L20.6983 15.794L20.6835 15.7836L20.6676 15.7751L20.651 15.7671L20.6337 15.761L20.6166 15.7561L20.5987 15.7524L20.581 15.75H20.5625L20.544 15.7506L20.5269 15.7524L20.5084 15.7561L20.4913 15.761L20.474 15.7671L20.4575 15.7751L20.4415 15.7836C20.4366 15.7865 20.4317 15.7899 20.4268 15.794L20.412 15.805L20.3991 15.8173L20.3868 15.8308L20.3752 15.8448L20.3654 15.8601L20.3561 15.8754L20.3487 15.8918L20.3426 15.909L19.4335 18.7031C19.4232 18.7353 19.4068 18.7637 19.3843 18.7882C19.3614 18.8126 19.3344 18.8314 19.3032 18.8444L16.7663 19.9128C16.7556 19.9173 16.7456 19.9224 16.7362 19.9281C16.7264 19.9342 16.7171 19.9407 16.7086 19.9476C16.6999 19.955 16.6917 19.9627 16.684 19.9709C16.6766 19.9795 16.6699 19.9884 16.6637 19.9978C16.6571 20.0072 16.6516 20.017 16.6471 20.0272C16.6422 20.0373 16.6381 20.0477 16.6348 20.0583C16.6315 20.0693 16.6291 20.0804 16.6274 20.0914C16.6258 20.1024 16.625 20.1136 16.625 20.125C16.625 20.1364 16.6258 20.1476 16.6274 20.1586C16.6291 20.1696 16.6315 20.1807 16.6348 20.1917C16.6381 20.2023 16.6422 20.2127 16.6471 20.2228C16.6516 20.233 16.6571 20.2428 16.6637 20.2522C16.6699 20.2616 16.6766 20.2705 16.684 20.2791C16.6917 20.2873 16.6999 20.295 16.7086 20.3024C16.7171 20.3093 16.7261 20.3158 16.7356 20.3219C16.7454 20.3276 16.7556 20.3327 16.7663 20.3372L19.3038 21.4056C19.3346 21.4186 19.3614 21.4374 19.3843 21.4618C19.4068 21.4867 19.4232 21.5149 19.4335 21.5463L20.3426 24.341L20.3487 24.3582L20.3561 24.3746L20.3653 24.3899L20.3752 24.4052L20.3868 24.4192L20.3991 24.4327L20.412 24.445L20.4267 24.456L20.4415 24.4664L20.4574 24.4749L20.474 24.4828L20.4913 24.489L20.5084 24.4939C20.5141 24.4955 20.5201 24.4967 20.5263 24.4976L20.544 24.5H20.5625L20.581 24.4994L20.5981 24.4976C20.6046 24.4967 20.6108 24.4955 20.6166 24.4939L20.6337 24.489L20.651 24.4828L20.6675 24.4749L20.6835 24.4664C20.6884 24.4635 20.6933 24.4601 20.6982 24.456L20.713 24.445L20.7259 24.4327L20.7382 24.4192L20.7498 24.4052L20.7596 24.3899L20.7689 24.3746L20.7763 24.3582L20.7824 24.341L21.6915 21.5469C21.7018 21.5147 21.7182 21.4863 21.7407 21.4618C21.7636 21.4374 21.7906 21.4186 21.8218 21.4056L24.3587 20.3372C24.3694 20.3327 24.3794 20.3276 24.3888 20.3219C24.3986 20.3158 24.4079 20.3093 24.4164 20.3024C24.4251 20.295 24.4333 20.2873 24.441 20.2791C24.4484 20.2705 24.4551 20.2616 24.4613 20.2522C24.4679 20.2428 24.4734 20.233 24.4779 20.2228C24.4828 20.2127 24.4869 20.2023 24.4902 20.1917C24.4935 20.1807 24.4959 20.1696 24.4976 20.1586C24.4992 20.1476 24.5 20.1364 24.5 20.125C24.5 20.1136 24.4992 20.1024 24.4976 20.0914C24.4959 20.0804 24.4935 20.0693 24.4902 20.0583C24.4869 20.0477 24.4828 20.0373 24.4779 20.0272C24.4734 20.017 24.4679 20.0072 24.4613 19.9978C24.4551 19.9884 24.4484 19.9795 24.441 19.9709C24.4333 19.9627 24.4251 19.955 24.4164 19.9476C24.4079 19.9407 24.3988 19.9342 24.3894 19.9281C24.3796 19.9224 24.3694 19.9173 24.3587 19.9128L21.8212 18.8444C21.7904 18.8314 21.7636 18.8126 21.7407 18.7882Z" fill="currentColor"/>
</svg>
