<svg width="28" height="28" viewBox="0 0 28 28" fill="none" xmlns="http://www.w3.org/2000/svg">
<path d="M8.8044 15.5301V12.25C8.8044 11.6701 9.27496 11.1995 9.85486 11.1995C10.4347 11.1996 10.9053 11.6701 10.9053 12.25V15.5301C10.9053 16.11 10.4347 16.5805 9.85486 16.5806C9.27496 16.5806 8.8044 16.11 8.8044 15.5301Z" fill="currentColor"/>
<path d="M17.6333 11.5163C18.0385 11.1015 18.703 11.094 19.1178 11.4992C19.5326 11.9043 19.5411 12.5689 19.1361 12.9837L18.2497 13.8895L19.1361 14.7964C19.5413 15.2112 19.5327 15.8768 19.1178 16.2821C18.703 16.6869 18.0384 16.6785 17.6333 16.2638L16.0314 14.6243C15.6329 14.2164 15.6329 13.5649 16.0314 13.1569L17.6333 11.5163Z" fill="currentColor"/>
<path d="M2.625 17.5V12.25C2.625 7.90076 6.15076 4.375 10.5 4.375H14.875C15.3583 4.375 15.75 4.76675 15.75 5.25C15.75 5.73325 15.3583 6.125 14.875 6.125H10.5C7.11726 6.125 4.375 8.86726 4.375 12.25V17.5C4.375 20.8827 7.11726 23.625 10.5 23.625H17.5C20.8827 23.625 23.625 20.8827 23.625 17.5V13.125C23.625 12.6418 24.0168 12.25 24.5 12.25C24.9833 12.25 25.375 12.6418 25.375 13.125V17.5C25.375 21.8492 21.8492 25.375 17.5 25.375H10.5C6.15076 25.375 2.625 21.8492 2.625 17.5Z" fill="currentColor"/>
<path d="M22.2872 1.88661C22.3743 1.36675 23.1217 1.36742 23.2079 1.88743L23.2943 2.40914C23.5636 4.03357 24.8361 5.30696 26.4603 5.57735L26.9855 5.66478C27.5055 5.75135 27.5055 6.49883 26.9855 6.58544L26.46 6.67297C24.8359 6.94347 23.5636 8.21678 23.2943 9.84108L23.2079 10.3628C23.1217 10.8828 22.3743 10.8835 22.2872 10.3636L22.1985 9.83431C21.9269 8.2134 20.6562 6.94366 19.0351 6.67316L18.5093 6.58542C17.9895 6.49868 17.9895 5.7515 18.5093 5.6648L19.0348 5.57716C20.6561 5.30677 21.9269 4.03696 22.1985 2.41591L22.2872 1.88661Z" fill="currentColor"/>
</svg>
