<svg width="28" height="28" viewBox="0 0 28 28" fill="none" xmlns="http://www.w3.org/2000/svg">
<g clip-path="url(#clip0_5865_145520)">
<mask id="mask0_5865_145520" style="mask-type:luminance" maskUnits="userSpaceOnUse" x="0" y="0" width="28" height="28">
<path d="M28 0H0V28H28V0Z" fill="white"/>
</mask>
<g mask="url(#mask0_5865_145520)">
<path fill-rule="evenodd" clip-rule="evenodd" d="M7.9433 5.29638L7.94266 5.29445L6.83129 1.9408L6.82378 1.92025L6.81477 1.90044L6.80351 1.88209L6.7915 1.86375L6.77723 1.84687L6.76222 1.83072L6.74645 1.81605L6.72844 1.80284L6.71041 1.79036L6.69089 1.78009L6.67062 1.77055L6.6496 1.76321L6.62858 1.75734L6.6068 1.75294L6.58503 1.75H6.56251L6.53999 1.75073L6.51896 1.75294L6.49644 1.75734L6.47541 1.76321L6.45439 1.77055L6.43412 1.78009L6.4146 1.79036C6.40859 1.79379 6.40259 1.79795 6.39658 1.80284L6.37856 1.81605L6.3628 1.83072L6.34777 1.84687L6.33351 1.86375L6.3215 1.88209L6.31024 1.90044L6.30123 1.92025L6.29373 1.9408L5.18256 5.29378C5.17005 5.33244 5.15003 5.36644 5.1225 5.39579C5.09447 5.42515 5.06144 5.44765 5.0234 5.46331L1.92268 6.74535C1.90967 6.75073 1.8974 6.75685 1.88589 6.7637C1.87388 6.77104 1.86262 6.77886 1.85211 6.78718C1.84159 6.79599 1.83158 6.80529 1.82207 6.81507C1.81307 6.82534 1.80481 6.8361 1.7973 6.84736C1.78929 6.85861 1.78253 6.87035 1.77703 6.88258C1.77102 6.89482 1.76602 6.90729 1.76201 6.92001C1.75801 6.93322 1.755 6.94643 1.753 6.95964C1.751 6.97285 1.75 6.9863 1.75 7C1.75 7.0137 1.75099 7.02715 1.753 7.04036C1.755 7.05358 1.758 7.06679 1.76201 7.07999C1.76601 7.09272 1.77102 7.10519 1.77702 7.11742C1.78253 7.12965 1.78928 7.14139 1.79729 7.15264C1.8048 7.1639 1.81306 7.17466 1.82207 7.18493C1.83158 7.19472 1.84159 7.20402 1.8521 7.21282C1.86261 7.22114 1.87362 7.22896 1.88513 7.2363C1.89714 7.24315 1.90966 7.24927 1.92267 7.25465L3.39551 7.86347L4.07756 8.14541L4.74215 8.42013L5.02414 8.53669C5.0261 8.53751 5.02804 8.53834 5.02996 8.5392C5.06508 8.55471 5.09592 8.57638 5.12249 8.60421C5.15002 8.63405 5.17004 8.66781 5.18256 8.70548L6.29371 12.0592L6.30122 12.0797L6.31023 12.0996L6.32149 12.1179L6.3335 12.1362L6.34777 12.1531L6.36278 12.1692L6.37855 12.1839L6.39657 12.1972L6.41459 12.2097L6.43411 12.2199L6.45438 12.2294L6.4754 12.2368L6.49643 12.2427C6.50343 12.2446 6.51069 12.2461 6.5182 12.247L6.53997 12.25H6.56249L6.58502 12.2493L6.60604 12.247C6.61405 12.2461 6.62156 12.2446 6.62856 12.2427L6.64959 12.2368L6.67061 12.2294L6.69088 12.2199L6.7104 12.2097C6.71641 12.2062 6.72241 12.2021 6.72842 12.1972L6.74644 12.1839L6.76221 12.1692L6.77723 12.1531L6.79149 12.1362L6.8035 12.1179L6.81476 12.0996L6.82377 12.0797L6.83128 12.0592L7.94244 8.70621C7.95495 8.66756 7.97497 8.63356 8.0025 8.60421C8.03053 8.57485 8.06356 8.55235 8.1016 8.53669L11.2024 7.25465C11.2154 7.24927 11.2276 7.24315 11.2391 7.2363C11.2511 7.22896 11.2624 7.22114 11.2729 7.21282C11.2834 7.20402 11.2934 7.19472 11.3029 7.18493C11.3119 7.17466 11.3202 7.1639 11.3277 7.15264C11.3357 7.14139 11.3425 7.12965 11.348 7.11742C11.354 7.10519 11.359 7.09272 11.363 7.07999C11.367 7.06679 11.37 7.05358 11.372 7.04036C11.374 7.02715 11.375 7.0137 11.375 7C11.375 6.9863 11.374 6.97285 11.372 6.95964C11.37 6.94643 11.367 6.93322 11.363 6.92001C11.359 6.90729 11.354 6.89482 11.348 6.88258C11.3425 6.87035 11.3357 6.85861 11.3277 6.84736C11.3202 6.8361 11.3119 6.82534 11.3029 6.81507C11.2934 6.80529 11.2834 6.79599 11.2729 6.78718C11.2624 6.77886 11.2514 6.77104 11.2399 6.7637C11.2279 6.75685 11.2154 6.75074 11.2024 6.74536L8.10085 5.46331C8.06331 5.44765 8.03053 5.42515 8.0025 5.39579C7.99959 5.39264 7.99677 5.38945 7.99403 5.3862L7.99253 5.38441C7.97191 5.35958 7.95614 5.33207 7.94523 5.30188L7.9433 5.29638ZM3.62756 12.3585C3.54359 12.8934 3.5 13.4416 3.5 14C3.5 19.799 8.20101 24.5 14 24.5C19.799 24.5 24.5 19.799 24.5 14C24.5 8.20101 19.799 3.5 14 3.5C13.0164 3.5 12.0645 3.63523 11.1617 3.88812L10.1001 3.44932L10.0958 3.44754L9.78058 2.49606C11.096 2.01344 12.5172 1.75 14 1.75C20.7655 1.75 26.25 7.23451 26.25 14C26.25 20.7655 20.7655 26.25 14 26.25C7.23451 26.25 1.75 20.7655 1.75 14C1.75 12.697 1.95344 11.4415 2.33028 10.2636L3.02917 10.5525L3.62756 12.3585ZM17.0209 16.6375C16.9321 16.8717 16.7472 17.0565 16.5132 17.1453L9.72793 19.719C9.406 19.8412 9.04236 19.7631 8.79889 19.5196C8.55543 19.2761 8.47738 18.9125 8.59949 18.5905L11.1732 11.8053C11.262 11.5712 11.4468 11.3864 11.681 11.2976L18.4662 8.72384C18.7882 8.60172 19.1517 8.67976 19.3953 8.92324C19.6387 9.16671 19.7167 9.53034 19.5947 9.85228L17.0209 16.6375ZM10.9253 17.3932L15.5243 15.6487L17.2688 11.0497L12.6698 12.7942L10.9253 17.3932Z" fill="currentColor"/>
</g>
</g>
<defs>
<clipPath id="clip0_5865_145520">
<rect width="28" height="28" fill="white"/>
</clipPath>
</defs>
</svg>
