<svg width="28" height="28" viewBox="0 0 28 28" fill="none" xmlns="http://www.w3.org/2000/svg">
<path d="M13.9989 4.45605L14.1786 4.47461C14.5703 4.55681 14.864 4.90432 14.8641 5.32031C14.8641 5.73639 14.5703 6.08375 14.1786 6.16602L13.9901 6.18555H4.6366C4.25497 6.18555 3.94529 6.49437 3.94519 6.87598V20.1436C3.94519 20.5252 4.25491 20.835 4.6366 20.835H11.2704C11.4995 20.835 11.7196 20.9259 11.8817 21.0879L13.9296 23.1357L13.9999 23.207L16.118 21.0879C16.28 20.9259 16.5003 20.8351 16.7294 20.835H23.3641C23.7456 20.8347 24.0546 20.5251 24.0546 20.1436V13.5098C24.0547 13.0327 24.4418 12.6458 24.9188 12.6455C25.3961 12.6455 25.7839 13.0325 25.7841 13.5098V20.1436C25.7841 21.4799 24.7005 22.5642 23.3641 22.5645H17.0878L14.6112 25.041C14.4491 25.203 14.229 25.2939 13.9999 25.2939C13.7707 25.2939 13.5506 25.203 13.3885 25.041L10.912 22.5645H4.6366C3.30007 22.5645 2.2157 21.4801 2.2157 20.1436V6.87598C2.21579 5.53953 3.30013 4.45606 4.6366 4.45605H13.9989ZM14.0721 9.30566C14.5538 9.30576 14.9442 9.69611 14.9442 10.1777V17.1006C14.9439 17.582 14.5535 17.9726 14.0721 17.9727C13.5907 17.9727 13.2004 17.5821 13.2001 17.1006V10.1777C13.2001 9.69604 13.5904 9.30566 14.0721 9.30566ZM10.1171 10.7881C10.5984 10.7883 10.9889 11.1788 10.9891 11.6602V15.6162C10.9891 16.0977 10.5985 16.488 10.1171 16.4883C9.63543 16.4883 9.2441 16.0979 9.24402 15.6162V11.6602C9.24426 11.1786 9.6355 10.7881 10.1171 10.7881ZM18.0272 11.7793C18.5089 11.7793 18.9003 12.1697 18.9003 12.6514V14.6289C18.9002 15.1106 18.5089 15.501 18.0272 15.501C17.5457 15.5007 17.1552 15.1105 17.1552 14.6289V12.6514C17.1552 12.1698 17.5457 11.7795 18.0272 11.7793ZM22.2098 1.09961C22.3628 1.09961 22.5012 1.19364 22.5575 1.33594L23.8212 4.54297L23.8378 4.58301L23.8778 4.59863L27.0848 5.86328C27.2269 5.91954 27.32 6.05724 27.3202 6.20996C27.3202 6.36317 27.227 6.50159 27.0848 6.55762L23.8778 7.82227L23.8378 7.83789L23.8212 7.87793L22.5575 11.085C22.5012 11.2273 22.3628 11.3203 22.2098 11.3203C22.0568 11.3201 21.9191 11.227 21.8632 11.085L20.5985 7.87793L20.5829 7.83789L20.5428 7.82227L17.3358 6.55762C17.1935 6.50164 17.1005 6.36326 17.1005 6.20996C17.1006 6.05714 17.1936 5.9195 17.3358 5.86328L20.5428 4.59863L20.5829 4.58301L20.5985 4.54297L21.8632 1.33594C21.9191 1.19387 22.0568 1.09979 22.2098 1.09961Z" fill="currentColor"/>
</svg>
