<svg width="28" height="28" viewBox="0 0 28 28" fill="none" xmlns="http://www.w3.org/2000/svg">
<path fill-rule="evenodd" clip-rule="evenodd" d="M9.48812 22.1015L2.625 24.9324V5.25H25.375V22.1015H9.48812ZM23.625 20.3515H9.14138L8.9811 20.4177L4.375 22.3176V7H23.625V20.3515ZM14.5767 18.375H16.4258C16.5783 18.375 16.684 18.2228 16.6307 18.08L13.2094 8.89241C13.1775 8.80679 13.0958 8.75 13.0044 8.75H10.8061C10.7152 8.75 10.6338 8.80616 10.6016 8.89109L7.11256 18.0785C7.05821 18.2217 7.16395 18.375 7.31707 18.375H9.15014C9.24431 18.375 9.32791 18.3147 9.35768 18.2254L9.99288 16.3187C10.0227 16.2294 10.1062 16.1691 10.2004 16.1691H13.5153C13.609 16.1691 13.6924 16.2289 13.7225 16.3177L14.3695 18.2265C14.3996 18.3152 14.4829 18.375 14.5767 18.375ZM20.125 18.1562V8.96875C20.125 8.84794 20.0271 8.75 19.9062 8.75H18.2164C18.0956 8.75 17.9977 8.84794 17.9977 8.96875V18.1562C17.9977 18.2771 18.0956 18.375 18.2164 18.375H19.9062C20.0271 18.375 20.125 18.2771 20.125 18.1562ZM12.0348 11.2484L13.0709 14.2955C13.1192 14.4373 13.0137 14.5847 12.8638 14.5847H10.8121C10.6623 14.5847 10.5568 14.4375 10.605 14.2956L11.6477 11.2236L11.648 11.2227C11.7352 10.9706 11.7922 10.7089 11.8192 10.4375C11.8209 10.4212 11.8345 10.4091 11.8509 10.4091C11.8674 10.4091 11.8811 10.4219 11.8826 10.4383C11.913 10.7725 11.9637 11.0426 12.0348 11.2484Z" fill="currentColor"/>
</svg>
