<svg width="28" height="28" viewBox="0 0 28 28" fill="none" xmlns="http://www.w3.org/2000/svg">
<path fill-rule="evenodd" clip-rule="evenodd" d="M5.25 4.375V23.625C5.25 24.1083 5.64175 24.5 6.125 24.5H15.75V22.75H7V5.25H21V15.75H22.75V4.375C22.75 3.89175 22.3583 3.5 21.875 3.5H6.125C5.64175 3.5 5.25 3.89175 5.25 4.375ZM8.75 9.625L9.625 7.875H10.5L9.625 9.625H10.5V11.375H8.75V9.625ZM11.375 9.625L12.25 7.875H13.125L12.25 9.625H13.125V11.375H11.375V9.625ZM18.375 9.625H14.875V11.375H18.375V9.625ZM18.375 14H8.75V15.75H18.375V14ZM22.0473 20.2344C22.0273 20.212 22.0127 20.1865 22.0036 20.1578L21.1955 17.6431L21.19 17.6277L21.1835 17.6128L21.1753 17.599L21.1665 17.5853L21.1562 17.5726L21.1453 17.5606L21.1338 17.5495L21.1207 17.5396L21.1075 17.5303L21.0934 17.5226L21.0787 17.5154L21.0633 17.5099L21.048 17.5055L21.0322 17.5022L21.0164 17.5H21L20.9836 17.5005L20.9683 17.5022L20.952 17.5055L20.9367 17.5099L20.9213 17.5154L20.9066 17.5226L20.8925 17.5303C20.8881 17.5328 20.8837 17.536 20.8793 17.5396L20.8662 17.5495L20.8547 17.5606L20.8438 17.5726L20.8335 17.5853L20.8247 17.599L20.8165 17.6128L20.81 17.6277L20.8045 17.6431L19.9964 20.1578C19.9873 20.1868 19.9727 20.2123 19.9527 20.2344C19.9324 20.2564 19.9083 20.2732 19.8807 20.285L17.6256 21.2465C17.6161 21.2505 17.6072 21.2551 17.5988 21.2603C17.5901 21.2658 17.5819 21.2717 17.5743 21.2779C17.5666 21.2845 17.5594 21.2915 17.5524 21.2988C17.5459 21.3065 17.5399 21.3146 17.5344 21.323C17.5286 21.3314 17.5237 21.3403 17.5197 21.3495C17.5153 21.3586 17.5117 21.368 17.5087 21.3775C17.5058 21.3874 17.5036 21.3973 17.5022 21.4072C17.5007 21.4171 17.5 21.4272 17.5 21.4375C17.5 21.4478 17.5007 21.4579 17.5022 21.4678C17.5036 21.4777 17.5058 21.4876 17.5087 21.4975C17.5117 21.507 17.5153 21.5164 17.5197 21.5255C17.5237 21.5347 17.5286 21.5436 17.5344 21.552C17.5399 21.5604 17.5459 21.5685 17.5524 21.5762C17.5594 21.5835 17.5666 21.5905 17.5743 21.5971C17.5819 21.6033 17.5899 21.6092 17.5983 21.6147C17.607 21.6199 17.6161 21.6245 17.6256 21.6285L19.8812 22.59C19.9085 22.6018 19.9324 22.6186 19.9527 22.6406C19.9727 22.663 19.9873 22.6883 19.9964 22.7166L20.8045 25.2319L20.81 25.2473L20.8165 25.2622L20.8247 25.276L20.8335 25.2897L20.8438 25.3024L20.8547 25.3144L20.8662 25.3255L20.8793 25.3354L20.8925 25.3447L20.9066 25.3524L20.9213 25.3596L20.9367 25.3651L20.952 25.3695C20.957 25.3709 20.9623 25.3721 20.9678 25.3728L20.9836 25.375H21L21.0164 25.3745L21.0317 25.3728C21.0375 25.3721 21.043 25.3709 21.048 25.3695L21.0633 25.3651L21.0787 25.3596L21.0934 25.3524L21.1075 25.3447C21.1119 25.3422 21.1163 25.339 21.1207 25.3354L21.1338 25.3255L21.1453 25.3144L21.1562 25.3024L21.1665 25.2897L21.1753 25.276L21.1835 25.2622L21.19 25.2473L21.1955 25.2319L22.0036 22.7172C22.0127 22.6882 22.0273 22.6627 22.0473 22.6406C22.0676 22.6186 22.0917 22.6018 22.1194 22.59L24.3744 21.6285C24.3839 21.6245 24.3928 21.6199 24.4012 21.6147C24.4099 21.6092 24.4181 21.6033 24.4257 21.5971C24.4334 21.5905 24.4406 21.5835 24.4476 21.5762C24.4541 21.5685 24.4601 21.5604 24.4656 21.552C24.4714 21.5436 24.4763 21.5347 24.4803 21.5255C24.4847 21.5164 24.4883 21.507 24.4912 21.4975C24.4942 21.4876 24.4964 21.4777 24.4978 21.4678C24.4993 21.4579 24.5 21.4478 24.5 21.4375C24.5 21.4272 24.4993 21.4171 24.4978 21.4072C24.4964 21.3973 24.4942 21.3874 24.4912 21.3775C24.4883 21.368 24.4847 21.3586 24.4803 21.3495C24.4763 21.3403 24.4714 21.3314 24.4656 21.323C24.4601 21.3146 24.4541 21.3065 24.4476 21.2988C24.4406 21.2915 24.4334 21.2845 24.4257 21.2779C24.4181 21.2717 24.4101 21.2658 24.4017 21.2603C24.393 21.2552 24.3839 21.2506 24.3744 21.2465L22.1188 20.285C22.0915 20.2732 22.0676 20.2564 22.0473 20.2344Z" fill="currentColor"/>
</svg>
