<svg width="28" height="28" viewBox="0 0 28 28" fill="none" xmlns="http://www.w3.org/2000/svg">
<path d="M9.67216 15.0642C11.4486 15.0642 12.9101 16.4884 12.9101 18.2703V22.1986C12.9101 23.8692 11.6257 25.2257 10.0014 25.3888L9.67216 25.4047H6.17216C4.50667 25.4047 3.1182 24.1528 2.95129 22.5279L2.9342 22.1986V18.2703C2.9342 16.4884 4.39577 15.0642 6.17216 15.0642H9.67216ZM21.7791 15.0642L22.1084 15.0802C23.6245 15.2323 24.8442 16.4245 25 17.941L25.0171 18.2703V22.1986L25 22.5279C24.8331 24.1528 23.4446 25.4047 21.7791 25.4047H18.2791C16.5027 25.4047 15.0412 23.9806 15.0412 22.1986V18.2703C15.0412 16.4884 16.5027 15.0642 18.2791 15.0642H21.7791ZM6.17216 16.8735C5.37057 16.8735 4.74345 17.5108 4.74345 18.2703V22.1986C4.74345 22.9581 5.37058 23.5955 6.17216 23.5955H9.67216C10.4235 23.5955 11.022 23.0355 11.094 22.3399L11.1009 22.1986V18.2703C11.1009 17.5583 10.5497 16.9531 9.82027 16.8803L9.67216 16.8735H6.17216ZM18.2791 16.8735C17.4775 16.8735 16.8504 17.5108 16.8504 18.2703V22.1986L16.8572 22.3399C16.9293 23.0355 17.5278 23.5955 18.2791 23.5955H21.7791L21.9272 23.5886C22.6567 23.5159 23.2078 22.9107 23.2078 22.1986V18.2703C23.2078 17.5108 22.5807 16.8735 21.7791 16.8735H18.2791ZM9.67216 2.59546L10.0014 2.61141C11.6256 2.77445 12.9101 4.13101 12.9101 5.80151V9.7299C12.9101 11.4004 11.6256 12.757 10.0014 12.92L9.67216 12.936H6.17216C4.50667 12.9359 3.1182 11.684 2.95129 10.0592L2.9342 9.7299V5.80151C2.9342 4.0196 4.39576 2.59546 6.17216 2.59546H9.67216ZM6.17216 4.4047C5.37057 4.4047 4.74345 5.04206 4.74345 5.80151V9.7299C4.74345 10.4893 5.37057 11.1267 6.17216 11.1267H9.67216C10.4235 11.1267 11.022 10.5668 11.094 9.87117L11.1009 9.7299V5.80151C11.1009 5.04206 10.4738 4.4047 9.67216 4.4047H6.17216Z" fill="currentColor"/>
<path d="M20.4803 12.3178C20.409 12.4985 20.2345 12.6172 20.0404 12.6172C19.8461 12.6172 19.6715 12.4985 19.6004 12.3178L18.3358 9.11149L15.1295 7.84682C14.9488 7.77577 14.8301 7.6012 14.8301 7.40688C14.8301 7.21279 14.9488 7.03822 15.1295 6.96694L18.3358 5.7025L19.6004 2.496C19.6715 2.31553 19.8461 2.19657 20.0404 2.19657C20.2345 2.19657 20.409 2.31553 20.4803 2.496L21.7448 5.7025L24.9513 6.96694C25.1317 7.03822 25.2507 7.21279 25.2507 7.40688C25.2507 7.6012 25.1317 7.77577 24.9513 7.84682L21.7448 9.11149L20.4803 12.3178Z" fill="currentColor"/>
</svg>
