<svg width="28" height="28" viewBox="0 0 28 28" fill="none" xmlns="http://www.w3.org/2000/svg">
<path d="M13.7598 0.910151C13.9198 0.863438 14.0899 0.863453 14.25 0.910151L24.7451 3.97558C25.1182 4.08457 25.3749 4.42676 25.375 4.81542V11.1025C25.375 18.0874 20.905 24.289 14.2783 26.4971C14.0988 26.5569 13.9041 26.5569 13.7246 26.4971C7.09627 24.289 2.625 18.0861 2.625 11.0996V4.81542C2.6251 4.42668 2.88169 4.08449 3.25488 3.97558L13.7598 0.910151ZM4.375 5.47167V11.0996C4.375 17.2352 8.24074 22.693 14.002 24.7412C19.7612 22.6928 23.625 17.2363 23.625 11.1025V5.47167L14.0049 2.66113L4.375 5.47167ZM13.9707 7.8457C14.4539 7.84572 14.8457 8.23746 14.8457 8.7207V12.5117H18.6377C19.1207 12.5119 19.5125 12.9038 19.5127 13.3867C19.5127 13.8698 19.1208 14.2615 18.6377 14.2617H14.8457V18.0537C14.8457 18.5369 14.4539 18.9287 13.9707 18.9287C13.4875 18.9287 13.0957 18.537 13.0957 18.0537V14.2617H9.30371C8.82059 14.2616 8.42871 13.8699 8.42871 13.3867C8.4289 12.9037 8.82071 12.5119 9.30371 12.5117H13.0957V8.7207C13.0957 8.23745 13.4875 7.8457 13.9707 7.8457Z" fill="currentColor"/>
</svg>
