<svg width="28" height="28" viewBox="0 0 28 28" fill="none" xmlns="http://www.w3.org/2000/svg">
<path d="M8 3.71423C8.43914 3.71423 9.00324 3.74869 9.31641 3.85291L9.42188 3.8949L12.4043 5.38416L12.5703 5.39978L12.8623 5.41833L13.1426 5.4281H21.7139C23.0833 5.4281 24.203 6.49916 24.2812 7.849L24.2861 8.00037V9.00623C25.284 9.35954 25.9998 10.3091 26 11.4281V21.7142C25.9998 23.1342 24.8487 24.2854 23.4287 24.2855H4.57129C3.202 24.2854 2.08224 23.2153 2.00391 21.8656L2 21.7142V6.28552C2.00007 4.91628 3.07032 3.79654 4.41992 3.71814L4.57129 3.71423H8ZM4.57129 5.4281C4.13178 5.42817 3.76923 5.75967 3.71973 6.18591L3.71387 6.28552V21.7142C3.71387 22.1495 4.03881 22.5077 4.45898 22.5629C4.46582 22.5638 4.4726 22.5651 4.47949 22.5658L4.57129 22.5717C5.01086 22.5717 5.37334 22.2401 5.42285 21.8138L5.42871 21.7142V11.4281C5.42894 10.0082 6.58004 8.85689 8 8.85681H22.5713V8.00037C22.5713 7.56087 22.2406 7.19842 21.8145 7.1488L21.7139 7.14294H13.1426C12.6488 7.14293 11.997 7.09964 11.7217 6.96228L8.74121 5.47302L8.57227 5.4574L8.28027 5.43884L8.04492 5.42908L4.57129 5.4281ZM8 10.5707C7.52682 10.5708 7.1428 10.955 7.14258 11.4281V22.5707H23.4287C23.8682 22.5706 24.2308 22.2401 24.2803 21.8138L24.2861 21.7142V11.4281C24.2859 10.955 23.9019 10.5708 23.4287 10.5707H8Z" fill="currentColor"/>
</svg>
