<svg width="28" height="28" viewBox="0 0 28 28" fill="none" xmlns="http://www.w3.org/2000/svg">
<path d="M17.4998 1.45837C17.7317 1.45837 17.9548 1.55024 18.1189 1.71423L23.9519 7.54822C24.1159 7.71224 24.2087 7.93443 24.2087 8.16638V24.5004C24.2086 25.6278 23.2942 26.5414 22.1667 26.5414H5.83374C4.70626 26.5414 3.79192 25.6278 3.79175 24.5004V3.50037C3.79175 2.37278 4.70616 1.45837 5.83374 1.45837H17.4998ZM5.83374 3.20837C5.67266 3.20837 5.54175 3.33928 5.54175 3.50037V24.5004C5.54192 24.6613 5.67276 24.7914 5.83374 24.7914H22.1667C22.3277 24.7914 22.4586 24.6613 22.4587 24.5004L22.4578 8.52869L17.1375 3.20837H5.83374ZM17.8162 11.4838C17.9174 11.0112 18.3827 10.7097 18.8552 10.8109C19.2913 10.9045 19.5813 11.3085 19.5437 11.7416L19.5271 11.85L17.7771 20.017C17.6119 20.7869 16.6116 20.9494 16.197 20.3246L16.1394 20.225L14.0037 15.9564L11.8708 20.225C11.5185 20.9293 10.5085 20.8363 10.2634 20.1273L10.2332 20.017L8.48315 11.85C8.3819 11.3775 8.68251 10.9122 9.15503 10.8109C9.59106 10.7176 10.0206 10.967 10.1638 11.3773L10.1941 11.4838L11.4207 17.2113L13.2224 13.6088C13.5258 13.0019 14.3585 12.9661 14.7244 13.5013L14.7878 13.6088L16.5876 17.2103L17.8162 11.4838Z" fill="currentColor"/>
</svg>
