<svg width="28" height="28" viewBox="0 0 28 28" fill="none" xmlns="http://www.w3.org/2000/svg">
<path d="M18.0996 2C18.5495 2 18.95 2.39977 18.9502 2.84961V3.7002H21.5C22.8999 3.7002 23.9997 4.8499 24.0498 6.2998V23.2998C24.0498 24.6997 23.0002 25.8998 21.6504 26H6.0498C4.69996 25.9999 3.60008 24.85 3.5 23.4502V6.4502C3.5 5.0002 4.55039 3.8002 5.90039 3.7002H8.65039V2.84961C8.65062 2.39977 9.05013 2 9.5 2H18.0996ZM6.0498 5.4502C5.64998 5.45033 5.25036 5.84988 5.2002 6.34961V23.25C5.2002 23.8 5.5502 24.2 5.9502 24.25H21.5C21.9 24.25 22.2996 23.8496 22.3496 23.3496V6.4502C22.3496 5.9002 21.9996 5.5002 21.5996 5.4502H18.8496V6.2998C18.8496 6.7498 18.45 7.15039 18 7.15039H9.4502C9.0002 7.15039 8.59961 6.7498 8.59961 6.2998V5.4502H6.0498ZM18.0498 17.4502C18.5497 17.4502 18.9503 17.7999 18.9004 18.2998C18.9004 18.7497 18.6002 19.1003 18.1504 19.1504H9.5C9.05 19.1504 8.65039 18.7498 8.65039 18.2998C8.65046 17.8499 8.95044 17.5002 9.40039 17.4502H18.0498ZM18.0498 11.4502C18.5497 11.4502 18.9503 11.7999 18.9004 12.2998C18.9004 12.7497 18.6002 13.1003 18.1504 13.1504H9.5C9.05 13.1504 8.65039 12.7498 8.65039 12.2998C8.65046 11.8499 8.95044 11.5002 9.40039 11.4502H18.0498ZM10.3496 3.7002V5.40039H17.2002V3.7002H10.3496Z" fill="currentColor"/>
</svg>
