<svg width="28" height="28" viewBox="0 0 28 28" fill="none" xmlns="http://www.w3.org/2000/svg">
<path d="M18.2856 2C18.5129 2 18.7314 2.09027 18.8921 2.25098L23.5327 6.8916C24.0149 7.37381 24.2856 8.02802 24.2856 8.70996V23.4287C24.2856 24.8488 23.1344 25.9999 21.7144 26H6.28564C4.86559 25.9999 3.71443 24.8488 3.71436 23.4287V4.57129C3.71443 3.15124 4.86559 2.00008 6.28564 2H18.2856ZM6.28564 3.71387C5.84613 3.71394 5.48359 4.04543 5.43408 4.47168L5.42822 4.57129V23.4287C5.4283 23.902 5.81237 24.2861 6.28564 24.2861H21.7144C22.1876 24.2861 22.5717 23.902 22.5718 23.4287V8.85742H19.1431L19.0151 8.85254C18.1281 8.7871 17.4282 8.04632 17.4282 7.14258V3.71387H6.28564ZM16.9497 11.5752C17.3026 11.3367 17.786 11.3928 18.0737 11.7217C18.3852 12.0779 18.3489 12.619 17.9927 12.9307L15.3013 15.2852L17.9927 17.6406C18.3489 17.9524 18.3855 18.4943 18.0737 18.8506C17.786 19.1792 17.3025 19.2345 16.9497 18.9961L16.8638 18.9307L13.9995 16.4238L11.1362 18.9307L11.0503 18.9961C10.6975 19.2346 10.214 19.1793 9.92627 18.8506C9.61454 18.4943 9.65106 17.9524 10.0073 17.6406L12.6978 15.2852L10.0073 12.9307C9.65117 12.619 9.61483 12.0779 9.92627 11.7217C10.214 11.3928 10.6974 11.3367 11.0503 11.5752L11.1362 11.6406L13.9995 14.1465L16.8638 11.6406L16.9497 11.5752ZM19.1431 7.14258H21.3589L19.1431 4.92676V7.14258Z" fill="currentColor"/>
</svg>
