<svg width="28" height="28" viewBox="0 0 28 28" fill="none" xmlns="http://www.w3.org/2000/svg">
<path d="M18.2856 2C18.5129 2 18.7314 2.09027 18.8921 2.25098L23.5327 6.8916C24.0149 7.37381 24.2856 8.02802 24.2856 8.70996V23.4287C24.2856 24.8488 23.1344 25.9999 21.7144 26H6.28564C4.86559 25.9999 3.71443 24.8488 3.71436 23.4287V4.57129C3.71443 3.15124 4.86559 2.00008 6.28564 2H18.2856ZM6.28564 3.71387C5.84613 3.71394 5.48359 4.04543 5.43408 4.47168L5.42822 4.57129V23.4287C5.4283 23.902 5.81237 24.2861 6.28564 24.2861H21.7144C22.1876 24.2861 22.5717 23.902 22.5718 23.4287V8.85742H19.1431L19.0151 8.85254C18.1281 8.7871 17.4282 8.04632 17.4282 7.14258V3.71387H6.28564ZM16.5718 11.4287C16.7989 11.4288 17.0166 11.5191 17.1772 11.6797C17.8971 12.3995 18.2856 13.1762 18.2856 14C18.2856 14.8238 17.8971 15.6005 17.1772 16.3203C17.0433 16.4542 16.8698 16.5398 16.6841 16.5645L16.5718 16.5713H11.4282V18.2861C11.428 18.7255 11.0975 19.0882 10.6714 19.1377L10.5718 19.1426C10.1323 19.1426 9.76979 18.812 9.72021 18.3857L9.71436 18.2861V12.2861C9.71436 11.8467 10.0451 11.4842 10.4712 11.4346L10.5718 11.4287H16.5718ZM11.4282 14.8574H16.1929L16.2827 14.7432C16.4531 14.5095 16.5435 14.2946 16.5659 14.0977L16.5718 14C16.5717 13.7768 16.4815 13.5305 16.2827 13.2578L16.1938 13.1426H11.4282V14.8574ZM19.1431 7.14258H21.3589L19.1431 4.92676V7.14258Z" fill="currentColor"/>
</svg>
