<svg width="28" height="28" viewBox="0 0 28 28" fill="none" xmlns="http://www.w3.org/2000/svg">
<path d="M1.4585 6.99992C1.4585 5.87231 2.37259 4.95825 3.50016 4.95825H11.6668C12.1501 4.95825 12.5418 5.35 12.5418 5.83325C12.5418 6.3165 12.1501 6.70825 11.6668 6.70825H3.50016C3.33907 6.70825 3.2085 6.83883 3.2085 6.99992V22.1666C3.2085 22.3277 3.33907 22.4583 3.50016 22.4583H24.5002C24.6613 22.4583 24.7918 22.3277 24.7918 22.1666V20.7083C24.7918 20.225 25.1836 19.8333 25.6668 19.8333C26.1501 19.8333 26.5418 20.225 26.5418 20.7083V22.1666C26.5418 23.2942 25.6278 24.2083 24.5002 24.2083H3.50016C2.37259 24.2083 1.4585 23.2942 1.4585 22.1666V6.99992Z" fill="currentColor"/>
<path d="M4.9585 13.4167C4.9585 12.9335 5.35025 12.5417 5.8335 12.5417H10.5002C10.9834 12.5417 11.3752 12.9335 11.3752 13.4167C11.3752 13.9 10.9834 14.2917 10.5002 14.2917H5.8335C5.35025 14.2917 4.9585 13.9 4.9585 13.4167Z" fill="currentColor"/>
<path d="M5.8335 17.2083C5.35025 17.2083 4.9585 17.6 4.9585 18.0833C4.9585 18.5665 5.35025 18.9583 5.8335 18.9583H19.8335C20.3167 18.9583 20.7085 18.5665 20.7085 18.0833C20.7085 17.6 20.3167 17.2083 19.8335 17.2083H5.8335Z" fill="currentColor"/>
<path fill-rule="evenodd" clip-rule="evenodd" d="M15.4585 9.33325C15.4585 6.91701 17.4172 4.95825 19.8335 4.95825C22.2497 4.95825 24.2085 6.91701 24.2085 9.33325C24.2085 10.6405 23.6352 11.8138 22.7263 12.6155C24.29 13.3375 25.6409 14.6064 26.4457 16.1789C26.6658 16.609 26.4956 17.1362 26.0654 17.3564C25.6352 17.5766 25.108 17.4063 24.8878 16.9761C23.8842 15.015 21.8087 13.7083 19.8334 13.7083C18.7511 13.7083 17.9956 13.8612 17.3935 14.109C16.7909 14.357 16.2862 14.7225 15.7258 15.2311C15.368 15.5559 14.8146 15.5292 14.4898 15.1714C14.165 14.8135 14.1918 14.2602 14.5496 13.9354C15.1891 13.3549 15.8655 12.8454 16.7275 12.4907C16.7456 12.4832 16.7638 12.4758 16.7821 12.4685C15.9656 11.6737 15.4585 10.5627 15.4585 9.33325ZM19.8335 6.70825C18.3837 6.70825 17.2085 7.8835 17.2085 9.33325C17.2085 10.783 18.3837 11.9583 19.8335 11.9583C21.2832 11.9583 22.4585 10.783 22.4585 9.33325C22.4585 7.8835 21.2832 6.70825 19.8335 6.70825Z" fill="currentColor"/>
</svg>
