<svg width="28" height="28" viewBox="0 0 28 28" fill="none" xmlns="http://www.w3.org/2000/svg">
<path fill-rule="evenodd" clip-rule="evenodd" d="M5.25 4.375C4.76675 4.375 4.375 4.76675 4.375 5.25V22.75C4.375 23.2332 4.76675 23.625 5.25 23.625H22.75C23.2332 23.625 23.625 23.2332 23.625 22.75V5.25C23.625 4.76675 23.2332 4.375 22.75 4.375H5.25ZM2.625 5.25C2.625 3.80025 3.80025 2.625 5.25 2.625H22.75C24.1997 2.625 25.375 3.80025 25.375 5.25V22.75C25.375 24.1997 24.1997 25.375 22.75 25.375H5.25C3.80025 25.375 2.625 24.1997 2.625 22.75V5.25Z" fill="currentColor"/>
<path fill-rule="evenodd" clip-rule="evenodd" d="M6.70831 7.58331C6.70831 7.10006 7.10006 6.70831 7.58331 6.70831H12.25C12.7332 6.70831 13.125 7.10006 13.125 7.58331V12.25C13.125 12.7332 12.7332 13.125 12.25 13.125H7.58331C7.10006 13.125 6.70831 12.7332 6.70831 12.25V7.58331ZM8.45831 8.45831V11.375H11.375V8.45831H8.45831Z" fill="currentColor"/>
<path fill-rule="evenodd" clip-rule="evenodd" d="M6.70831 15.75C6.70831 15.2668 7.10006 14.875 7.58331 14.875H12.25C12.7332 14.875 13.125 15.2668 13.125 15.75V20.4167C13.125 20.8999 12.7332 21.2917 12.25 21.2917H7.58331C7.10006 21.2917 6.70831 20.8999 6.70831 20.4167V15.75ZM8.45831 16.625V19.5417H11.375V16.625H8.45831Z" fill="currentColor"/>
<path fill-rule="evenodd" clip-rule="evenodd" d="M15 7.875C15 7.39175 15.3918 7 15.875 7H20.5417C21.0249 7 21.4167 7.39175 21.4167 7.875C21.4167 8.35825 21.0249 8.75 20.5417 8.75H15.875C15.3918 8.75 15 8.35825 15 7.875Z" fill="currentColor"/>
<path fill-rule="evenodd" clip-rule="evenodd" d="M15 11.9583C15 11.4751 15.3918 11.0833 15.875 11.0833H20.5417C21.0249 11.0833 21.4167 11.4751 21.4167 11.9583C21.4167 12.4416 21.0249 12.8333 20.5417 12.8333H15.875C15.3918 12.8333 15 12.4416 15 11.9583Z" fill="currentColor"/>
<path fill-rule="evenodd" clip-rule="evenodd" d="M15 16.0417C15 15.5584 15.3918 15.1667 15.875 15.1667H20.5417C21.0249 15.1667 21.4167 15.5584 21.4167 16.0417C21.4167 16.5249 21.0249 16.9167 20.5417 16.9167H15.875C15.3918 16.9167 15 16.5249 15 16.0417Z" fill="currentColor"/>
<path fill-rule="evenodd" clip-rule="evenodd" d="M15 20.125C15 19.6418 15.3918 19.25 15.875 19.25H20.5417C21.0249 19.25 21.4167 19.6418 21.4167 20.125C21.4167 20.6082 21.0249 21 20.5417 21H15.875C15.3918 21 15 20.6082 15 20.125Z" fill="currentColor"/>
</svg>
