<svg width="28" height="28" viewBox="0 0 28 28" fill="none" xmlns="http://www.w3.org/2000/svg">
<path d="M14.8682 17.3902C14.8142 16.9588 14.4461 16.625 14 16.625C13.5168 16.625 13.125 17.0168 13.125 17.5V21L13.1318 21.1098C13.1858 21.5412 13.5539 21.875 14 21.875C14.4832 21.875 14.875 21.4832 14.875 21V17.5L14.8682 17.3902Z" fill="currentColor"/>
<path fill-rule="evenodd" clip-rule="evenodd" d="M14 1.45825C17.6261 1.45825 20.5802 4.33524 20.7043 7.93108L20.7083 8.16659V11.9583H23.3333C24.4609 11.9583 25.375 12.8723 25.375 13.9999V24.4999C25.375 25.6275 24.4609 26.5416 23.3333 26.5416H4.66667C3.53909 26.5416 2.625 25.6275 2.625 24.4999V13.9999C2.625 12.8723 3.53909 11.9583 4.66667 11.9583H7.29166V8.16659C7.29166 4.46168 10.2951 1.45825 14 1.45825ZM18.9583 8.16659V11.9583H9.04166V8.16659L9.04624 7.9515C9.15885 5.31288 11.3337 3.20825 14 3.20825C16.7384 3.20825 18.9583 5.42818 18.9583 8.16659ZM4.66667 13.7083H23.3333C23.4944 13.7083 23.625 13.8388 23.625 13.9999V24.4999C23.625 24.661 23.4944 24.7916 23.3333 24.7916H4.66667C4.50558 24.7916 4.375 24.661 4.375 24.4999V13.9999C4.375 13.8388 4.50558 13.7083 4.66667 13.7083Z" fill="currentColor"/>
</svg>
