<svg width="28" height="28" viewBox="0 0 28 28" fill="none" xmlns="http://www.w3.org/2000/svg">
<path d="M13.6667 2.87675L13.666 8.43975L13.5911 8.44281C5.52779 8.86536 2 14.7708 2 25.6268C2 26.5902 3.32961 26.8462 3.68742 25.9517L3.79162 25.7131L3.83425 25.6208C3.96537 25.3398 4.12528 25.0249 4.31437 24.6845C4.85631 23.709 5.52008 22.7329 6.30706 21.8248L6.53819 21.564C8.47952 19.4216 10.802 18.0658 13.5386 17.7999L13.666 17.7898L13.6667 23.2934C13.6667 24.061 14.5844 24.4566 15.1425 23.9296L25.6425 14.0129C26.0009 13.6744 26.009 13.1067 25.6604 12.758L15.1604 2.25804C14.6092 1.70682 13.6667 2.09721 13.6667 2.87675ZM15.416 4.98875L23.785 13.3578L15.416 21.2628L15.4167 16.8768C15.4167 16.3935 15.0249 16.0018 14.5417 16.0018C10.6861 16.0018 7.50756 17.7676 4.98461 20.6787L4.61956 21.1138C4.38193 21.4065 4.15573 21.7039 3.94077 22.0046L3.894 22.0698C4.59879 14.0507 7.89574 10.1684 14.5417 10.1684C15.0249 10.1684 15.4167 9.77667 15.4167 9.29342L15.416 4.98875Z" fill="currentColor"/>
</svg>
