<svg width="28" height="28" viewBox="0 0 28 28" fill="none" xmlns="http://www.w3.org/2000/svg">
<path fill-rule="evenodd" clip-rule="evenodd" d="M5.25 4.375C4.76675 4.375 4.375 4.76675 4.375 5.25V22.75C4.375 23.2332 4.76675 23.625 5.25 23.625H22.75C23.2332 23.625 23.625 23.2332 23.625 22.75V5.25C23.625 4.76675 23.2332 4.375 22.75 4.375H5.25ZM2.625 5.25C2.625 3.80025 3.80025 2.625 5.25 2.625H22.75C24.1997 2.625 25.375 3.80025 25.375 5.25V22.75C25.375 24.1997 24.1997 25.375 22.75 25.375H5.25C3.80025 25.375 2.625 24.1997 2.625 22.75V5.25Z" fill="currentColor"/>
<path fill-rule="evenodd" clip-rule="evenodd" d="M6.70825 7.58337C6.70825 7.10012 7.1 6.70837 7.58325 6.70837H12.2499C12.7332 6.70837 13.1249 7.10012 13.1249 7.58337V12.25C13.1249 12.7333 12.7332 13.125 12.2499 13.125H7.58325C7.1 13.125 6.70825 12.7333 6.70825 12.25V7.58337ZM8.45825 8.45837V11.375H11.3749V8.45837H8.45825Z" fill="currentColor"/>
<path fill-rule="evenodd" clip-rule="evenodd" d="M14.875 7.58337C14.875 7.10012 15.2668 6.70837 15.75 6.70837H20.4167C20.8999 6.70837 21.2917 7.10012 21.2917 7.58337V12.25C21.2917 12.7333 20.8999 13.125 20.4167 13.125H15.75C15.2668 13.125 14.875 12.7333 14.875 12.25V7.58337ZM16.625 8.45837V11.375H19.5417V8.45837H16.625Z" fill="currentColor"/>
<path fill-rule="evenodd" clip-rule="evenodd" d="M6.70825 15.75C6.70825 15.2668 7.1 14.875 7.58325 14.875H12.2499C12.7332 14.875 13.1249 15.2668 13.1249 15.75V20.4167C13.1249 20.8999 12.7332 21.2917 12.2499 21.2917H7.58325C7.1 21.2917 6.70825 20.8999 6.70825 20.4167V15.75ZM8.45825 16.625V19.5417H11.3749V16.625H8.45825Z" fill="currentColor"/>
<path fill-rule="evenodd" clip-rule="evenodd" d="M14.875 15.75C14.875 15.2668 15.2668 14.875 15.75 14.875H20.4167C20.8999 14.875 21.2917 15.2668 21.2917 15.75V20.4167C21.2917 20.8999 20.8999 21.2917 20.4167 21.2917H15.75C15.2668 21.2917 14.875 20.8999 14.875 20.4167V15.75ZM16.625 16.625V19.5417H19.5417V16.625H16.625Z" fill="currentColor"/>
</svg>
