<svg width="28" height="28" viewBox="0 0 28 28" fill="none" xmlns="http://www.w3.org/2000/svg">
<g clip-path="url(#clip0_5865_145005)">
<path d="M14 3.2627C14.0286 3.2627 14.0522 3.2705 14.0684 3.28027C14.081 3.28798 14.0978 3.30151 14.1133 3.33496L16.9209 9.42188C17.194 10.0138 17.755 10.4211 18.4023 10.498L25.0586 11.2871C25.0954 11.2915 25.1137 11.3038 25.125 11.3135C25.1393 11.3258 25.1542 11.3458 25.1631 11.373C25.1719 11.4002 25.1713 11.425 25.167 11.4434C25.1636 11.4578 25.156 11.4778 25.1289 11.5029L20.208 16.0537C19.7293 16.4964 19.5146 17.1564 19.6416 17.7959L20.9482 24.3701C20.9555 24.4064 20.9501 24.4277 20.9443 24.4414C20.937 24.4588 20.9226 24.4793 20.8994 24.4961C20.8761 24.513 20.8519 24.5199 20.833 24.5215C20.8182 24.5227 20.7969 24.5219 20.7646 24.5039L14.916 21.2295C14.347 20.911 13.653 20.911 13.084 21.2295L7.23535 24.5039C7.20315 24.5219 7.18178 24.5227 7.16699 24.5215C7.14812 24.5199 7.12387 24.513 7.10059 24.4961C7.07744 24.4793 7.06299 24.4588 7.05566 24.4414C7.04994 24.4277 7.04454 24.4064 7.05176 24.3701L8.3584 17.7959C8.48536 17.1564 8.27067 16.4964 7.79199 16.0537L2.87109 11.5029C2.84402 11.4778 2.83643 11.4578 2.83301 11.4434C2.82871 11.425 2.82811 11.4002 2.83691 11.373C2.84576 11.3458 2.86072 11.3258 2.875 11.3135C2.88626 11.3038 2.90463 11.2915 2.94141 11.2871L9.59766 10.498C10.245 10.4211 10.806 10.0138 11.0791 9.42188L13.8867 3.33496C13.9022 3.30151 13.919 3.28798 13.9316 3.28027C13.9478 3.2705 13.9714 3.2627 14 3.2627Z" fill="currentColor" stroke="currentColor" stroke-width="1.75"/>
</g>
<defs>
<clipPath id="clip0_5865_145005">
<rect width="28" height="28" fill="white"/>
</clipPath>
</defs>
</svg>
