<svg width="28" height="28" viewBox="0 0 28 28" fill="none" xmlns="http://www.w3.org/2000/svg">
<path d="M14.9039 4.72475C14.8505 4.29324 14.4828 3.95896 14.0367 3.95837C13.5535 3.95774 13.1612 4.34898 13.1606 4.83223L13.1509 13.125H4.8335L4.72374 13.1319C4.2923 13.1859 3.9585 13.554 3.9585 14C3.9585 14.4833 4.35025 14.875 4.8335 14.875H13.1488L13.1392 23.1656L13.1458 23.2753C13.1993 23.7068 13.5669 24.0411 14.013 24.0417C14.4963 24.0423 14.8885 23.6511 14.8892 23.1679L14.8988 14.875H23.1668L23.2766 14.8682C23.708 14.8142 24.0418 14.4461 24.0418 14C24.0418 13.5168 23.6501 13.125 23.1668 13.125H14.9009L14.9106 4.83452L14.9039 4.72475Z" fill="currentColor"/>
</svg>
