<svg width="28" height="28" viewBox="0 0 28 28" fill="none" xmlns="http://www.w3.org/2000/svg">
<path fill-rule="evenodd" clip-rule="evenodd" d="M13.9999 5.17808L11.8736 9.78804C11.473 10.6565 10.65 11.2545 9.70021 11.3671L4.6588 11.9648L8.38604 15.4117C9.08821 16.061 9.40259 17.0285 9.2162 17.9666L8.2268 22.946L12.6567 20.4663C13.4913 19.9992 14.5086 19.9992 15.3432 20.4663L19.7731 22.946L18.7837 17.9666C18.5973 17.0286 18.9117 16.061 19.6138 15.4117L23.3411 11.9648L18.2997 11.3671C17.3499 11.2545 16.5269 10.6565 16.1263 9.78804L13.9999 5.17808ZM14.908 2.96861C14.5506 2.19373 13.4493 2.19373 13.0919 2.9686L10.2845 9.05506C10.1388 9.37086 9.83952 9.5883 9.49416 9.62925L2.83807 10.4184C1.99067 10.5189 1.65035 11.5663 2.27685 12.1457L7.19788 16.6965C7.45321 16.9326 7.56753 17.2844 7.49975 17.6256L6.19347 24.1998C6.02716 25.0367 6.91812 25.684 7.66273 25.2672L13.5115 21.9933C13.815 21.8235 14.1849 21.8235 14.4884 21.9933L20.3371 25.2672C21.0818 25.684 21.9727 25.0367 21.8064 24.1998L20.5001 17.6256C20.4324 17.2844 20.5467 16.9326 20.802 16.6965L25.723 12.1457C26.3495 11.5663 26.0092 10.5189 25.1618 10.4184L18.5057 9.62925C18.1604 9.58831 17.8611 9.37086 17.7154 9.05506L14.908 2.96861Z" fill="currentColor"/>
</svg>
