<svg width="28" height="28" viewBox="0 0 28 28" fill="none" xmlns="http://www.w3.org/2000/svg">
<path fill-rule="evenodd" clip-rule="evenodd" d="M2.3335 2.625H21.0002C21.4834 2.625 21.8752 3.01675 21.8752 3.5V11.9583H25.6668C26.1501 11.9583 26.5418 12.3501 26.5418 12.8333V22.1667C26.5418 22.6499 26.1501 23.0417 25.6668 23.0417L23.1122 23.041L21.6189 24.5354C21.3056 24.8486 20.814 24.8747 20.4711 24.6137L20.3814 24.5354L18.8872 23.041L12.8335 23.0417C12.3874 23.0417 12.0193 22.7079 11.9653 22.2764L11.9585 22.1667V18.375H10.2782L8.20221 20.4521C7.88898 20.7653 7.39735 20.7914 7.05438 20.5304L6.96478 20.4521L4.88816 18.375H2.3335C1.88742 18.375 1.51931 18.0412 1.46531 17.6098L1.4585 17.5V3.5C1.4585 3.01675 1.85025 2.625 2.3335 2.625ZM13.7082 18.375V21.291L19.2502 21.2917C19.4436 21.2917 19.6303 21.3557 19.7822 21.472L19.8689 21.5479L21.0002 22.679L22.1314 21.5479C22.2682 21.4112 22.4455 21.3244 22.6351 21.2993L22.7502 21.2917L24.7912 21.291V13.708H21.8752V17.5C21.8752 17.9461 21.5414 18.3142 21.1099 18.3682C21.074 18.3727 21.0373 18.375 21.0002 18.375H13.7082ZM11.3752 12.8333C11.3752 12.3501 10.9834 11.9583 10.5002 11.9583H7.00016L6.8904 11.9652C6.45896 12.0191 6.12516 12.3873 6.12516 12.8333C6.12516 13.3166 6.51691 13.7083 7.00016 13.7083H10.5002L10.6099 13.7015C11.0414 13.6475 11.3752 13.2794 11.3752 12.8333ZM14.0002 7.29167C14.4834 7.29167 14.8752 7.68342 14.8752 8.16667C14.8752 8.61274 14.5414 8.98086 14.1099 9.03485L14.0002 9.04167H7.00016C6.51691 9.04167 6.12516 8.64992 6.12516 8.16667C6.12516 7.72059 6.45896 7.35248 6.8904 7.29848L7.00016 7.29167H14.0002Z" fill="currentColor"/>
</svg>
