<svg width="28" height="28" viewBox="0 0 28 28" fill="none" xmlns="http://www.w3.org/2000/svg">
<path d="M19.8332 3.20825C20.1433 3.20825 20.4309 3.37263 20.5881 3.63989L26.4211 13.5559C26.5822 13.8297 26.5821 14.1698 26.4211 14.4436L20.5881 24.3606C20.4309 24.6278 20.1433 24.7913 19.8332 24.7913H8.1672C7.85719 24.7913 7.56955 24.6278 7.41232 24.3606L1.57931 14.4436C1.41823 14.1698 1.41823 13.8297 1.57931 13.5559L7.41232 3.63989C7.56953 3.37264 7.85713 3.20825 8.1672 3.20825H19.8332ZM3.34786 14.0002L8.66622 23.0413H19.3332L24.6506 13.9993L19.3332 4.95825H8.66622L3.34786 14.0002ZM14.0002 10.2083C16.0941 10.2084 17.7912 11.9063 17.7912 14.0002C17.791 16.0941 16.094 17.7911 14.0002 17.7913C11.9063 17.7912 10.2084 16.0941 10.2082 14.0002C10.2082 11.9062 11.9062 10.2083 14.0002 10.2083ZM14.0002 11.9583C12.8727 11.9583 11.9582 12.8727 11.9582 14.0002C11.9584 15.1276 12.8728 16.0412 14.0002 16.0413C15.1275 16.0411 16.041 15.1276 16.0412 14.0002C16.0412 12.8728 15.1276 11.9584 14.0002 11.9583Z" fill="currentColor"/>
</svg>
