<svg width="28" height="28" viewBox="0 0 28 28" fill="none" xmlns="http://www.w3.org/2000/svg">
<path d="M7.29199 11.958C8.25823 11.9582 9.04179 12.7418 9.04199 13.708C9.04199 14.6744 8.25835 15.4578 7.29199 15.458C6.32549 15.458 5.54199 14.6745 5.54199 13.708C5.54219 12.7417 6.32562 11.958 7.29199 11.958ZM14.292 11.958C15.2582 11.9582 16.0418 12.7418 16.042 13.708C16.042 14.6744 15.2584 15.4578 14.292 15.458C13.3255 15.458 12.542 14.6745 12.542 13.708C12.5422 12.7417 13.3256 11.958 14.292 11.958ZM20.708 11.958C21.6744 11.958 22.4578 12.7417 22.458 13.708C22.458 14.6745 21.6745 15.458 20.708 15.458C19.7417 15.4578 18.958 14.6744 18.958 13.708C18.9582 12.7418 19.7418 11.9582 20.708 11.958Z" fill="currentColor"/>
</svg>
