<svg width="28" height="28" viewBox="0 0 28 28" fill="none" xmlns="http://www.w3.org/2000/svg">
<path fill-rule="evenodd" clip-rule="evenodd" d="M12.2502 1.45825C6.29011 1.45825 1.4585 6.28987 1.4585 12.2499C1.4585 18.21 6.29011 23.0416 12.2502 23.0416C14.9152 23.0416 17.3546 22.0755 19.2373 20.4745L23.7106 24.9478L23.8002 25.0261C24.1432 25.2871 24.6348 25.261 24.948 24.9478C25.2897 24.6061 25.2897 24.052 24.948 23.7103L20.4748 19.2371C22.0758 17.3544 23.0418 14.915 23.0418 12.2499C23.0418 6.28987 18.2102 1.45825 12.2502 1.45825ZM12.2502 3.20825C17.2437 3.20825 21.2918 7.25637 21.2918 12.2499C21.2918 17.2435 17.2437 21.2916 12.2502 21.2916C7.25661 21.2916 3.2085 17.2435 3.2085 12.2499C3.2085 7.25637 7.25661 3.20825 12.2502 3.20825Z" fill="currentColor"/>
</svg>
