<svg width="28" height="28" viewBox="0 0 28 28" fill="none" xmlns="http://www.w3.org/2000/svg">
<path d="M14.8514 3.6142C14.8019 3.18791 14.4396 2.85702 14 2.85702C13.5266 2.85702 13.1429 3.24078 13.1429 3.71416V19.9999L13.1486 20.0998C13.1981 20.5261 13.5604 20.857 14 20.857C14.4734 20.857 14.8571 20.4733 14.8571 19.9999V3.71416L14.8514 3.6142Z" fill="currentColor"/>
<path d="M25.9942 19.0428C25.9447 18.6165 25.5824 18.2856 25.1429 18.2856C24.6695 18.2856 24.2857 18.6693 24.2857 19.1427V23.4284L24.2799 23.5284C24.2304 23.9547 23.8681 24.2856 23.4286 24.2856H4.57143L4.47147 24.2798C4.04518 24.2303 3.71429 23.868 3.71429 23.4284V19.1427L3.70852 19.0428C3.65901 18.6165 3.29672 18.2856 2.85714 18.2856C2.38376 18.2856 2 18.6693 2 19.1427V23.4284L2.00437 23.5795C2.08258 24.9294 3.20199 25.9999 4.57143 25.9999H23.4286L23.5797 25.9955C24.9295 25.9173 26 24.7979 26 23.4284V19.1427L25.9942 19.0428Z" fill="currentColor"/>
<path d="M13.3939 3.10798C13.7029 2.799 14.1891 2.77523 14.5254 3.03668L14.6061 3.10798L22.3204 10.8223C22.6551 11.157 22.6551 11.6997 22.3204 12.0345C22.0114 12.3434 21.5252 12.3672 21.189 12.1058L21.1082 12.0345L14 4.92693L6.89182 12.0345C6.58284 12.3434 6.09664 12.3672 5.76039 12.1058L5.67964 12.0345C5.37065 11.7255 5.34689 11.2393 5.60834 10.903L5.67964 10.8223L13.3939 3.10798Z" fill="currentColor"/>
</svg>
