<svg width="28" height="28" viewBox="0 0 28 28" fill="none" xmlns="http://www.w3.org/2000/svg">
<path d="M24.1942 2.67997C24.886 2.4227 25.5668 3.08511 25.328 3.78348L17.747 25.9495C17.4649 26.7743 16.2819 26.7248 16.0702 25.8792L13.286 14.7571L2.16689 12.6067C1.33819 12.4464 1.20994 11.343 1.9208 10.9749L2.02822 10.927L24.1942 2.67997ZM5.55947 11.4798L13.7128 13.0579L16.6854 10.0862C17.0271 9.74463 17.581 9.74481 17.9228 10.0862C18.236 10.3995 18.2629 10.8917 18.0019 11.2347L17.9228 11.3235L14.9696 14.2757L17.0487 22.5823L23.0741 4.96415L5.55947 11.4798Z" fill="currentColor"/>
</svg>
