<svg width="28" height="28" viewBox="0 0 28 28" fill="none" xmlns="http://www.w3.org/2000/svg">
<path d="M14 2.125C16.833 2.125 19.4354 2.5255 21.3604 3.19922C22.3187 3.53465 23.157 3.9546 23.7725 4.46387C24.3822 4.96852 24.875 5.65215 24.875 6.5V21.3633C24.875 22.2163 24.3964 22.916 23.7842 23.4424C23.1691 23.9711 22.3305 24.4076 21.3701 24.7568C19.4419 25.458 16.836 25.875 14 25.875C11.164 25.875 8.55811 25.458 6.62988 24.7568C5.6695 24.4076 4.83087 23.9711 4.21582 23.4424C3.60356 22.916 3.125 22.2163 3.125 21.3633V6.5C3.125 5.65215 3.61784 4.96852 4.22754 4.46387C4.84297 3.9546 5.68131 3.53465 6.63965 3.19922C8.56456 2.5255 11.167 2.125 14 2.125ZM23.125 19.2432C22.6061 19.5187 21.9939 19.7575 21.3223 19.959C19.4105 20.5325 16.822 20.875 14 20.875C11.178 20.875 8.58951 20.5325 6.67773 19.959C6.00611 19.7575 5.39391 19.5187 4.875 19.2432V21.3633C4.875 21.5144 4.95672 21.7716 5.35645 22.1152C5.75333 22.4564 6.37866 22.8036 7.22754 23.1123C8.91859 23.7272 11.3132 24.125 14 24.125C16.6868 24.125 19.0814 23.7272 20.7725 23.1123C21.6213 22.8036 22.2467 22.4564 22.6436 22.1152C23.0433 21.7716 23.125 21.5144 23.125 21.3633V19.2432ZM23.125 14.2432C22.6061 14.5187 21.9939 14.7575 21.3223 14.959C19.4105 15.5325 16.822 15.875 14 15.875C11.178 15.875 8.58951 15.5325 6.67773 14.959C6.00611 14.7575 5.39391 14.5187 4.875 14.2432V17C4.875 17.0033 4.87571 17.0112 4.88086 17.0264C4.88641 17.0427 4.89842 17.0712 4.92578 17.1113C4.98365 17.1962 5.09543 17.3147 5.29199 17.4541C5.6893 17.7359 6.32134 18.0254 7.18066 18.2832C8.88815 18.7954 11.2993 19.125 14 19.125C16.7007 19.125 19.1118 18.7954 20.8193 18.2832C21.6787 18.0254 22.3107 17.7359 22.708 17.4541C22.9046 17.3147 23.0163 17.1962 23.0742 17.1113C23.1016 17.0712 23.1136 17.0427 23.1191 17.0264C23.1243 17.0112 23.125 17.0033 23.125 17V14.2432ZM23.125 8.98926C22.6145 9.29957 22.0163 9.5712 21.3604 9.80078C19.4354 10.4745 16.833 10.875 14 10.875C11.167 10.875 8.56456 10.4745 6.63965 9.80078C5.98372 9.5712 5.3855 9.29957 4.875 8.98926V12C4.875 12.0033 4.87571 12.0112 4.88086 12.0264C4.88641 12.0427 4.89842 12.0712 4.92578 12.1113C4.98365 12.1962 5.09543 12.3147 5.29199 12.4541C5.6893 12.7359 6.32134 13.0254 7.18066 13.2832C8.88815 13.7954 11.2993 14.125 14 14.125C16.7007 14.125 19.1118 13.7954 20.8193 13.2832C21.6787 13.0254 22.3107 12.7359 22.708 12.4541C22.9046 12.3147 23.0163 12.1962 23.0742 12.1113C23.1016 12.0712 23.1136 12.0427 23.1191 12.0264C23.1243 12.0112 23.125 12.0033 23.125 12V8.98926ZM14 3.875C11.3101 3.875 8.91215 4.25755 7.21777 4.85059C6.36669 5.14847 5.74033 5.4834 5.34375 5.81152C4.9416 6.1443 4.875 6.38156 4.875 6.5C4.875 6.61844 4.9416 6.8557 5.34375 7.18848C5.74033 7.5166 6.36669 7.85153 7.21777 8.14941C8.91215 8.74245 11.3101 9.125 14 9.125C16.6899 9.125 19.0879 8.74245 20.7822 8.14941C21.6333 7.85153 22.2597 7.5166 22.6562 7.18848C23.0584 6.8557 23.125 6.61844 23.125 6.5C23.125 6.38156 23.0584 6.1443 22.6562 5.81152C22.2597 5.4834 21.6333 5.14847 20.7822 4.85059C19.0879 4.25755 16.6899 3.875 14 3.875Z" fill="currentColor"/>
</svg>
