<svg width="28" height="28" viewBox="0 0 28 28" fill="none" xmlns="http://www.w3.org/2000/svg">
<path d="M22.762 2.04102C23.139 2.04105 23.4689 2.28203 23.5891 2.63086L23.6184 2.73828L26.5227 16.7383C26.5346 16.7959 26.5413 16.8559 26.5413 16.917V24.5C26.541 24.9831 26.1494 25.375 25.6663 25.375H2.33325C1.85014 25.375 1.45847 24.9831 1.45825 24.5V16.917C1.45825 16.8553 1.46368 16.7944 1.47583 16.7363L4.41626 2.73633C4.49358 2.36802 4.79603 2.09449 5.16138 2.04785L5.27271 2.04102H22.762ZM3.20825 23.625H24.7913V17.791H3.20825V23.625ZM20.7083 19.25C21.5136 19.25 22.1661 19.9027 22.1663 20.708C22.1663 21.5134 21.5137 22.167 20.7083 22.167C19.9028 22.167 19.2502 21.5134 19.2502 20.708C19.2504 19.9027 19.9029 19.25 20.7083 19.25ZM3.41138 16.042H24.592L22.05 3.79102H5.98169L3.41138 16.042ZM14.0002 5.54199C15.9597 5.54217 17.3962 6.74866 17.7239 8.54688C19.1438 8.80971 20.1252 9.79245 20.1252 11.3828C20.125 13.2332 18.7185 14.222 16.718 14.2881L16.5012 14.291H16.3333V14.292L11.6663 14.291H11.4905C9.37751 14.291 7.87547 13.2994 7.87524 11.3828C7.87524 9.99074 8.91581 8.88819 10.2766 8.56934C10.5915 6.74491 12.0233 5.54199 14.0002 5.54199ZM14.0002 7.29199C12.7234 7.29199 11.9622 8.05894 11.9622 9.34863L11.9573 9.4375C11.9305 9.7023 11.7859 9.93263 11.5764 10.0742C11.4832 10.1372 11.377 10.1827 11.2629 10.2061C11.2062 10.2177 11.1473 10.2236 11.0872 10.2236C10.2596 10.2236 9.62524 10.7612 9.62524 11.3828C9.62546 12.101 10.1628 12.4963 11.2854 12.5381L11.4905 12.541H12.2366C12.2424 12.541 12.2483 12.5419 12.2542 12.542H15.7268L15.7424 12.541H16.5012C17.7657 12.541 18.375 12.1411 18.3752 11.3828C18.3752 10.5961 17.8828 10.2236 16.9202 10.2236C16.4372 10.2234 16.0453 9.83159 16.0452 9.34863C16.0452 8.07869 15.2676 7.29218 14.0002 7.29199Z" fill="currentColor"/>
</svg>
